<?xml version="1.0" standalone="no"?><!-- Generator: Gravit.io --><svg xmlns="http://www.w3.org/2000/svg" xmlns:xlink="http://www.w3.org/1999/xlink" style="isolation:isolate" viewBox="334 210 173.625 29" width="173.625" height="29"><defs><clipPath id="_clipPath_9c748dpy9m2NvOL6lXs9G3uOZ8rQ23n3"><rect x="334" y="210" width="173.625" height="29"/></clipPath></defs><g clip-path="url(#_clipPath_9c748dpy9m2NvOL6lXs9G3uOZ8rQ23n3)"><path d=" M 371.275 233.462 L 371.275 214.913 L 373.675 214.913 L 373.675 233.462 L 371.275 233.462 L 371.275 233.462 Z  M 389.225 226.913 L 389.225 226.913 Q 389.225 227.188 389.175 227.638 L 389.175 227.638 L 378.425 227.638 L 378.425 227.638 Q 378.65 229.388 379.963 230.45 L 379.963 230.45 L 379.963 230.45 Q 381.275 231.513 383.225 231.513 L 383.225 231.513 L 383.225 231.513 Q 385.6 231.513 387.05 229.913 L 387.05 229.913 L 388.375 231.462 L 388.375 231.462 Q 387.475 232.513 386.138 233.063 L 386.138 233.063 L 386.138 233.063 Q 384.8 233.612 383.15 233.612 L 383.15 233.612 L 383.15 233.612 Q 381.05 233.612 379.425 232.75 L 379.425 232.75 L 379.425 232.75 Q 377.8 231.888 376.913 230.337 L 376.913 230.337 L 376.913 230.337 Q 376.025 228.788 376.025 226.837 L 376.025 226.837 L 376.025 226.837 Q 376.025 224.913 376.888 223.362 L 376.888 223.362 L 376.888 223.362 Q 377.75 221.813 379.263 220.95 L 379.263 220.95 L 379.263 220.95 Q 380.775 220.087 382.675 220.087 L 382.675 220.087 L 382.675 220.087 Q 384.575 220.087 386.063 220.95 L 386.063 220.95 L 386.063 220.95 Q 387.55 221.813 388.388 223.362 L 388.388 223.362 L 388.388 223.362 Q 389.225 224.913 389.225 226.913 L 389.225 226.913 L 389.225 226.913 Z  M 382.675 222.112 L 382.675 222.112 Q 380.95 222.112 379.788 223.163 L 379.788 223.163 L 379.788 223.163 Q 378.625 224.212 378.425 225.913 L 378.425 225.913 L 386.925 225.913 L 386.925 225.913 Q 386.725 224.237 385.563 223.175 L 385.563 223.175 L 385.563 223.175 Q 384.4 222.112 382.675 222.112 L 382.675 222.112 L 382.675 222.112 Z  M 393.85 222.438 L 393.85 222.438 Q 394.475 221.288 395.7 220.688 L 395.7 220.688 L 395.7 220.688 Q 396.925 220.087 398.675 220.087 L 398.675 220.087 L 398.675 222.413 L 398.675 222.413 Q 398.475 222.388 398.125 222.388 L 398.125 222.388 L 398.125 222.388 Q 396.175 222.388 395.063 223.55 L 395.063 223.55 L 395.063 223.55 Q 393.95 224.712 393.95 226.862 L 393.95 226.862 L 393.95 233.462 L 391.55 233.462 L 391.55 220.212 L 393.85 220.212 L 393.85 222.438 L 393.85 222.438 Z  M 407.7 220.087 L 407.7 220.087 Q 410.225 220.087 411.713 221.55 L 411.713 221.55 L 411.713 221.55 Q 413.2 223.013 413.2 225.837 L 413.2 225.837 L 413.2 233.462 L 410.8 233.462 L 410.8 226.112 L 410.8 226.112 Q 410.8 224.188 409.875 223.212 L 409.875 223.212 L 409.875 223.212 Q 408.95 222.237 407.225 222.237 L 407.225 222.237 L 407.225 222.237 Q 405.275 222.237 404.15 223.375 L 404.15 223.375 L 404.15 223.375 Q 403.025 224.513 403.025 226.638 L 403.025 226.638 L 403.025 233.462 L 400.625 233.462 L 400.625 220.212 L 402.925 220.212 L 402.925 222.212 L 402.925 222.212 Q 403.65 221.188 404.888 220.638 L 404.888 220.638 L 404.888 220.638 Q 406.125 220.087 407.7 220.087 L 407.7 220.087 L 407.7 220.087 Z  M 428.7 226.913 L 428.7 226.913 Q 428.7 227.188 428.65 227.638 L 428.65 227.638 L 417.9 227.638 L 417.9 227.638 Q 418.125 229.388 419.438 230.45 L 419.438 230.45 L 419.438 230.45 Q 420.75 231.513 422.7 231.513 L 422.7 231.513 L 422.7 231.513 Q 425.075 231.513 426.525 229.913 L 426.525 229.913 L 427.85 231.462 L 427.85 231.462 Q 426.95 232.513 425.613 233.063 L 425.613 233.063 L 425.613 233.063 Q 424.275 233.612 422.625 233.612 L 422.625 233.612 L 422.625 233.612 Q 420.525 233.612 418.9 232.75 L 418.9 232.75 L 418.9 232.75 Q 417.275 231.888 416.388 230.337 L 416.388 230.337 L 416.388 230.337 Q 415.5 228.788 415.5 226.837 L 415.5 226.837 L 415.5 226.837 Q 415.5 224.913 416.363 223.362 L 416.363 223.362 L 416.363 223.362 Q 417.225 221.813 418.738 220.95 L 418.738 220.95 L 418.738 220.95 Q 420.25 220.087 422.15 220.087 L 422.15 220.087 L 422.15 220.087 Q 424.05 220.087 425.538 220.95 L 425.538 220.95 L 425.538 220.95 Q 427.025 221.813 427.863 223.362 L 427.863 223.362 L 427.863 223.362 Q 428.7 224.913 428.7 226.913 L 428.7 226.913 L 428.7 226.913 Z  M 422.15 222.112 L 422.15 222.112 Q 420.425 222.112 419.263 223.163 L 419.263 223.163 L 419.263 223.163 Q 418.1 224.212 417.9 225.913 L 417.9 225.913 L 426.4 225.913 L 426.4 225.913 Q 426.2 224.237 425.038 223.175 L 425.038 223.175 L 425.038 223.175 Q 423.875 222.112 422.15 222.112 L 422.15 222.112 L 422.15 222.112 Z  M 429.325 238.462 L 429.325 238.462 Q 428.45 238.462 427.7 238.263 L 427.7 238.263 L 427.7 238.263 Q 426.95 238.063 426.45 237.663 L 426.45 237.663 L 427.225 235.813 L 427.225 235.813 Q 427.975 236.438 429.175 236.438 L 429.175 236.438 L 429.175 236.438 Q 430.125 236.438 430.638 235.85 L 430.638 235.85 L 430.638 235.85 Q 431.15 235.263 431.15 234.112 L 431.15 234.112 L 431.15 220.212 L 433.55 220.212 L 433.55 234.063 L 433.55 234.063 Q 433.55 236.112 432.45 237.288 L 432.45 237.288 L 432.45 237.288 Q 431.35 238.462 429.325 238.462 L 429.325 238.462 L 429.325 238.462 Z  M 432.35 217.663 L 432.35 217.663 Q 431.65 217.663 431.188 217.212 L 431.188 217.212 L 431.188 217.212 Q 430.725 216.763 430.725 216.112 L 430.725 216.112 L 430.725 216.112 Q 430.725 215.462 431.188 215 L 431.188 215 L 431.188 215 Q 431.65 214.538 432.35 214.538 L 432.35 214.538 L 432.35 214.538 Q 433.05 214.538 433.513 214.975 L 433.513 214.975 L 433.513 214.975 Q 433.975 215.413 433.975 216.063 L 433.975 216.063 L 433.975 216.063 Q 433.975 216.737 433.513 217.2 L 433.513 217.2 L 433.513 217.2 Q 433.05 217.663 432.35 217.663 L 432.35 217.663 L 432.35 217.663 Z  M 442.8 233.612 L 442.8 233.612 Q 440.825 233.612 439.25 232.737 L 439.25 232.737 L 439.25 232.737 Q 437.675 231.862 436.788 230.325 L 436.788 230.325 L 436.788 230.325 Q 435.9 228.788 435.9 226.837 L 435.9 226.837 L 435.9 226.837 Q 435.9 224.888 436.788 223.35 L 436.788 223.35 L 436.788 223.35 Q 437.675 221.813 439.25 220.95 L 439.25 220.95 L 439.25 220.95 Q 440.825 220.087 442.8 220.087 L 442.8 220.087 L 442.8 220.087 Q 444.775 220.087 446.338 220.95 L 446.338 220.95 L 446.338 220.95 Q 447.9 221.813 448.788 223.35 L 448.788 223.35 L 448.788 223.35 Q 449.675 224.888 449.675 226.837 L 449.675 226.837 L 449.675 226.837 Q 449.675 228.788 448.788 230.325 L 448.788 230.325 L 448.788 230.325 Q 447.9 231.862 446.338 232.737 L 446.338 232.737 L 446.338 232.737 Q 444.775 233.612 442.8 233.612 L 442.8 233.612 L 442.8 233.612 Z  M 442.8 231.513 L 442.8 231.513 Q 444.075 231.513 445.088 230.925 L 445.088 230.925 L 445.088 230.925 Q 446.1 230.337 446.675 229.275 L 446.675 229.275 L 446.675 229.275 Q 447.25 228.212 447.25 226.837 L 447.25 226.837 L 447.25 226.837 Q 447.25 225.462 446.675 224.4 L 446.675 224.4 L 446.675 224.4 Q 446.1 223.337 445.088 222.763 L 445.088 222.763 L 445.088 222.763 Q 444.075 222.188 442.8 222.188 L 442.8 222.188 L 442.8 222.188 Q 441.525 222.188 440.513 222.763 L 440.513 222.763 L 440.513 222.763 Q 439.5 223.337 438.913 224.4 L 438.913 224.4 L 438.913 224.4 Q 438.325 225.462 438.325 226.837 L 438.325 226.837 L 438.325 226.837 Q 438.325 228.212 438.913 229.275 L 438.913 229.275 L 438.913 229.275 Q 439.5 230.337 440.513 230.925 L 440.513 230.925 L 440.513 230.925 Q 441.525 231.513 442.8 231.513 L 442.8 231.513 L 442.8 231.513 Z  M 452 233.462 L 452 214.913 L 454.4 214.913 L 454.4 233.462 L 452 233.462 L 452 233.462 Z  M 463.65 233.612 L 463.65 233.612 Q 461.675 233.612 460.1 232.737 L 460.1 232.737 L 460.1 232.737 Q 458.525 231.862 457.638 230.325 L 457.638 230.325 L 457.638 230.325 Q 456.75 228.788 456.75 226.837 L 456.75 226.837 L 456.75 226.837 Q 456.75 224.888 457.638 223.35 L 457.638 223.35 L 457.638 223.35 Q 458.525 221.813 460.1 220.95 L 460.1 220.95 L 460.1 220.95 Q 461.675 220.087 463.65 220.087 L 463.65 220.087 L 463.65 220.087 Q 465.625 220.087 467.188 220.95 L 467.188 220.95 L 467.188 220.95 Q 468.75 221.813 469.638 223.35 L 469.638 223.35 L 469.638 223.35 Q 470.525 224.888 470.525 226.837 L 470.525 226.837 L 470.525 226.837 Q 470.525 228.788 469.638 230.325 L 469.638 230.325 L 469.638 230.325 Q 468.75 231.862 467.188 232.737 L 467.188 232.737 L 467.188 232.737 Q 465.625 233.612 463.65 233.612 L 463.65 233.612 L 463.65 233.612 Z  M 463.65 231.513 L 463.65 231.513 Q 464.925 231.513 465.938 230.925 L 465.938 230.925 L 465.938 230.925 Q 466.95 230.337 467.525 229.275 L 467.525 229.275 L 467.525 229.275 Q 468.1 228.212 468.1 226.837 L 468.1 226.837 L 468.1 226.837 Q 468.1 225.462 467.525 224.4 L 467.525 224.4 L 467.525 224.4 Q 466.95 223.337 465.938 222.763 L 465.938 222.763 L 465.938 222.763 Q 464.925 222.188 463.65 222.188 L 463.65 222.188 L 463.65 222.188 Q 462.375 222.188 461.362 222.763 L 461.362 222.763 L 461.362 222.763 Q 460.35 223.337 459.763 224.4 L 459.763 224.4 L 459.763 224.4 Q 459.175 225.462 459.175 226.837 L 459.175 226.837 L 459.175 226.837 Q 459.175 228.212 459.763 229.275 L 459.763 229.275 L 459.763 229.275 Q 460.35 230.337 461.362 230.925 L 461.362 230.925 L 461.362 230.925 Q 462.375 231.513 463.65 231.513 L 463.65 231.513 L 463.65 231.513 Z  M 483.25 220.212 L 485.525 220.212 L 485.525 231.663 L 485.525 231.663 Q 485.525 235.138 483.8 236.8 L 483.8 236.8 L 483.8 236.8 Q 482.075 238.462 478.65 238.462 L 478.65 238.462 L 478.65 238.462 Q 476.775 238.462 475.075 237.95 L 475.075 237.95 L 475.075 237.95 Q 473.375 237.438 472.325 236.487 L 472.325 236.487 L 473.475 234.638 L 473.475 234.638 Q 474.4 235.438 475.763 235.9 L 475.763 235.9 L 475.763 235.9 Q 477.125 236.362 478.575 236.362 L 478.575 236.362 L 478.575 236.362 Q 480.9 236.362 482.013 235.263 L 482.013 235.263 L 482.013 235.263 Q 483.125 234.163 483.125 231.913 L 483.125 231.913 L 483.125 230.862 L 483.125 230.862 Q 482.275 231.888 481.038 232.4 L 481.038 232.4 L 481.038 232.4 Q 479.8 232.913 478.35 232.913 L 478.35 232.913 L 478.35 232.913 Q 476.45 232.913 474.913 232.1 L 474.913 232.1 L 474.913 232.1 Q 473.375 231.288 472.5 229.825 L 472.5 229.825 L 472.5 229.825 Q 471.625 228.362 471.625 226.487 L 471.625 226.487 L 471.625 226.487 Q 471.625 224.612 472.5 223.15 L 472.5 223.15 L 472.5 223.15 Q 473.375 221.688 474.913 220.888 L 474.913 220.888 L 474.913 220.888 Q 476.45 220.087 478.35 220.087 L 478.35 220.087 L 478.35 220.087 Q 479.85 220.087 481.138 220.638 L 481.138 220.638 L 481.138 220.638 Q 482.425 221.188 483.25 222.263 L 483.25 222.263 L 483.25 220.212 L 483.25 220.212 Z  M 478.625 230.813 L 478.625 230.813 Q 479.925 230.813 480.963 230.263 L 480.963 230.263 L 480.963 230.263 Q 482 229.712 482.588 228.725 L 482.588 228.725 L 482.588 228.725 Q 483.175 227.737 483.175 226.487 L 483.175 226.487 L 483.175 226.487 Q 483.175 224.563 481.9 223.375 L 481.9 223.375 L 481.9 223.375 Q 480.625 222.188 478.625 222.188 L 478.625 222.188 L 478.625 222.188 Q 476.6 222.188 475.325 223.375 L 475.325 223.375 L 475.325 223.375 Q 474.05 224.563 474.05 226.487 L 474.05 226.487 L 474.05 226.487 Q 474.05 227.737 474.638 228.725 L 474.638 228.725 L 474.638 228.725 Q 475.225 229.712 476.263 230.263 L 476.263 230.263 L 476.263 230.263 Q 477.3 230.813 478.625 230.813 L 478.625 230.813 L 478.625 230.813 Z  M 489.1 233.462 L 489.1 220.212 L 491.5 220.212 L 491.5 233.462 L 489.1 233.462 L 489.1 233.462 Z  M 490.3 217.663 L 490.3 217.663 Q 489.6 217.663 489.138 217.212 L 489.138 217.212 L 489.138 217.212 Q 488.675 216.763 488.675 216.112 L 488.675 216.112 L 488.675 216.112 Q 488.675 215.462 489.138 215 L 489.138 215 L 489.138 215 Q 489.6 214.538 490.3 214.538 L 490.3 214.538 L 490.3 214.538 Q 491 214.538 491.463 214.975 L 491.463 214.975 L 491.463 214.975 Q 491.925 215.413 491.925 216.063 L 491.925 216.063 L 491.925 216.063 Q 491.925 216.737 491.463 217.2 L 491.463 217.2 L 491.463 217.2 Q 491 217.663 490.3 217.663 L 490.3 217.663 L 490.3 217.663 Z  M 500.75 233.612 L 500.75 233.612 Q 498.775 233.612 497.2 232.737 L 497.2 232.737 L 497.2 232.737 Q 495.625 231.862 494.737 230.325 L 494.737 230.325 L 494.737 230.325 Q 493.85 228.788 493.85 226.837 L 493.85 226.837 L 493.85 226.837 Q 493.85 224.888 494.737 223.35 L 494.737 223.35 L 494.737 223.35 Q 495.625 221.813 497.2 220.95 L 497.2 220.95 L 497.2 220.95 Q 498.775 220.087 500.75 220.087 L 500.75 220.087 L 500.75 220.087 Q 502.725 220.087 504.288 220.95 L 504.288 220.95 L 504.288 220.95 Q 505.85 221.813 506.737 223.35 L 506.737 223.35 L 506.737 223.35 Q 507.625 224.888 507.625 226.837 L 507.625 226.837 L 507.625 226.837 Q 507.625 228.788 506.737 230.325 L 506.737 230.325 L 506.737 230.325 Q 505.85 231.862 504.288 232.737 L 504.288 232.737 L 504.288 232.737 Q 502.725 233.612 500.75 233.612 L 500.75 233.612 L 500.75 233.612 Z  M 500.75 231.513 L 500.75 231.513 Q 502.025 231.513 503.038 230.925 L 503.038 230.925 L 503.038 230.925 Q 504.05 230.337 504.625 229.275 L 504.625 229.275 L 504.625 229.275 Q 505.2 228.212 505.2 226.837 L 505.2 226.837 L 505.2 226.837 Q 505.2 225.462 504.625 224.4 L 504.625 224.4 L 504.625 224.4 Q 504.05 223.337 503.038 222.763 L 503.038 222.763 L 503.038 222.763 Q 502.025 222.188 500.75 222.188 L 500.75 222.188 L 500.75 222.188 Q 499.475 222.188 498.463 222.763 L 498.463 222.763 L 498.463 222.763 Q 497.45 223.337 496.862 224.4 L 496.862 224.4 L 496.862 224.4 Q 496.275 225.462 496.275 226.837 L 496.275 226.837 L 496.275 226.837 Q 496.275 228.212 496.862 229.275 L 496.862 229.275 L 496.862 229.275 Q 497.45 230.337 498.463 230.925 L 498.463 230.925 L 498.463 230.925 Q 499.475 231.513 500.75 231.513 L 500.75 231.513 L 500.75 231.513 Z " fill="rgb(255,255,255)"/><path d=" M 343.71 231.5 L 343.71 217.5 L 345.71 217.5 L 345.71 229.76 L 353.29 229.76 L 353.29 231.5 L 343.71 231.5 Z " fill="rgb(255,255,255)"/><circle vector-effect="non-scaling-stroke" cx="348.5" cy="224.50000000000003" r="13.5" fill="none" stroke-width="2" stroke="rgb(255,255,255)" stroke-linejoin="miter" stroke-linecap="square" stroke-miterlimit="3"/></g></svg>
